<?xml version="1.0" standalone="no"?><!DOCTYPE svg PUBLIC "-//W3C//DTD SVG 1.1//EN" "http://www.w3.org/Graphics/SVG/1.1/DTD/svg11.dtd"><svg t="1595511764522" class="icon" viewBox="0 0 1024 1024" version="1.1" xmlns="http://www.w3.org/2000/svg" p-id="1553" xmlns:xlink="http://www.w3.org/1999/xlink" width="200" height="200"><defs><style type="text/css"></style></defs><path d="M810.09777778 65.32437333a24.26652445 24.26652445 0 0 1-24.26652445 24.27562667h-512a24.27562667 24.27562667 0 1 1 0-48.55125334h512a24.27562667 24.27562667 0 0 1 24.26652445 24.27562667z" fill="#cdcdcd" p-id="1554"></path><path d="M298.09777778 464.00170666a23.70218667 23.70218667 0 0 1-47.40437333 0V74.61774222a23.70218667 23.70218667 0 0 1 47.40437333 0v389.38396444zM810.09777778 453.95285333c0 14.30869333-10.94997333 25.90492445-24.46677333 25.90492445-13.50769778 0-24.46677333-11.59623111-24.46677334-25.90492445V76.82048c0-14.30869333 10.94997333-25.90492445 24.46677334-25.90492445 13.50769778 0 24.46677333 11.59623111 24.46677333 25.90492445v377.13237333z" fill="#cdcdcd" p-id="1555"></path><path d="M969.38666667 218.16888888A23.89333333 23.89333333 0 0 1 945.49333333 242.06222222h-134.25777778a23.89333333 23.89333333 0 1 1 0-47.78666667h134.25777778a23.89333333 23.89333333 0 0 1 23.89333334 23.89333333zM274.39559111 218.16888888c0 13.19822222-11.17752889 23.89333333-24.96739556 23.89333334h-140.26524444C95.37308445 242.06222222 84.19555555 231.36711111 84.19555555 218.16888888s11.17752889-23.89333333 24.96739556-23.89333333h140.27434667c13.78076445 0 24.95829333 10.69511111 24.95829333 23.89333333z" fill="#cdcdcd" p-id="1556"></path><path d="M252.01322667 421.68547555c-68.60344889-20.45269333-119.49397333-83.00316445-121.56017778-158.46058667-0.26396445-9.57553778 0.46421333-18.93262222 1.73852444-28.11676444l-22.79196444 0.61895111a24.97649778 24.97649778 0 0 1-23.87512889-15.82876444 218.13475555 218.13475555 0 0 0-3.57717333 45.60213333c2.84899555 104.48440889 79.20753778 189.65390222 178.176 207.41233778a405.54951111 405.54951111 0 0 1-8.11008-51.22730667zM923.43864889 237.99352888c7.24536889 71.21578667-31.17511111 142.11299555-100.14264889 172.79658667-8.74723555 3.89575111-17.66741333 6.79025778-26.65130667 9.12042667l9.26606222 20.83498666a25.00380445 25.00380445 0 0 1-5.51594666 28.09856 218.77191111 218.77191111 0 0 0 43.50862222-14.08113777c95.50961778-42.48917333 145.10762667-145.55363555 123.77201778-243.82122667a406.3232 406.3232 0 0 1-44.2368 27.05180444z" fill="#cdcdcd" p-id="1557"></path><path d="M759.87171555 459.37777778c-12.22428445 116.37191111-110.62840889 207.07555555-230.2407111 207.07555555s-218.01642667-90.70364445-230.24071112-207.07555555H255.04426667c13.50769778 141.02983111 132.29169778 251.33056 276.87139555 251.33056 144.57059555 0 263.36369778-110.30072889 276.87139556-251.33056h-48.91534223z" fill="#cdcdcd" p-id="1558"></path><path d="M506.07445333 696.03555555H552.96V897.42222222h-46.88554667z" fill="#cdcdcd" p-id="1559"></path><path d="M754.34666667 909.25511111a24.33934222 24.33934222 0 0 1-24.34844445 24.34844444H326.99733333a24.34844445 24.34844445 0 1 1 0-48.69688889H729.99822222a24.33934222 24.33934222 0 0 1 24.34844445 24.34844445zM539.30666667 261.12227555l25.60455111 51.88266667 57.26208 8.31943111-41.43331556 40.38656 9.77578667 57.02542222L539.30666667 391.81198222l-51.20910222 26.92437333 9.77578666-57.02542222-41.43331556-40.38656 57.26208-8.31943111z" fill="#cdcdcd" p-id="1560"></path></svg>