<?xml version="1.0" standalone="no"?><!DOCTYPE svg PUBLIC "-//W3C//DTD SVG 1.1//EN" "http://www.w3.org/Graphics/SVG/1.1/DTD/svg11.dtd"><svg t="1595511797940" class="icon" viewBox="0 0 1024 1024" version="1.1" xmlns="http://www.w3.org/2000/svg" p-id="1804" xmlns:xlink="http://www.w3.org/1999/xlink" width="200" height="200"><defs><style type="text/css"></style></defs><path d="M438.84088889 295.70844445H124.35911111c-9.44355555 0-17.06666667 7.62311111-17.06666666 17.06666666s7.62311111 17.06666667 17.06666666 17.06666667h297.41511111v176.01422222h-97.05244444v-87.60888889c0-9.44355555-7.62311111-17.06666667-17.06666667-17.06666666s-17.06666667 7.62311111-17.06666666 17.06666666v104.67555556c0 9.44355555 7.62311111 17.06666667 17.06666666 17.06666666h131.18577778c9.44355555 0 17.06666667-7.62311111 17.06666666-17.06666666V312.77511111c0-9.44355555-7.62311111-17.06666667-17.06666666-17.06666666zM898.61688889 295.70844445h-314.48177778c-9.44355555 0-17.06666667 7.62311111-17.06666666 17.06666666v210.14755556c0 9.44355555 7.62311111 17.06666667 17.06666666 17.06666666h131.18577778c9.44355555 0 17.06666667-7.62311111 17.06666666-17.06666666v-104.67555556c0-9.44355555-7.62311111-17.06666667-17.06666666-17.06666666s-17.06666667 7.62311111-17.06666667 17.06666666v87.60888889h-97.05244444V329.84177778h297.41511111c9.44355555 0 17.06666667-7.62311111 17.06666666-17.06666667s-7.73688889-17.06666667-17.06666666-17.06666666z" fill="#cdcdcd" p-id="1805"></path><path d="M1004.65777778 63.03288889c-27.42044445-35.95377778-78.96177778-42.89422222-114.91555556-15.36-21.16266667 16.15644445-33.10933333 41.64266667-32.19911111 68.26666666 0 0.68266667-0.11377778 1.36533333-0.11377778 2.048v27.648H166.34311111v-27.76177777c0-0.68266667 0-1.36533333-0.11377778-2.048 1.024-26.624-10.92266667-51.99644445-32.19911111-68.15288889-17.18044445-13.312-38.79822222-19.00088889-60.416-16.15644444-21.73155555 2.95822222-40.96 14.10844445-54.272 31.51644444-13.312 17.408-19.00088889 38.912-16.04266667 60.64355556 2.95822222 21.73155555 14.10844445 40.96 31.51644445 54.272 6.144 4.77866667 13.42577778 7.05422222 20.70755555 7.05422222 10.24 0 20.48-4.66488889 27.1928889-13.42577778 11.49155555-15.01866667 8.53333333-36.40888889-6.37155556-47.78666667-3.98222222-2.95822222-5.00622222-6.94044445-5.23377778-9.10222222-0.22755555-2.048-0.34133333-6.25777778 2.73066667-10.12622222 2.95822222-3.98222222 6.94044445-5.00622222 9.10222222-5.23377778 2.048-0.22755555 6.25777778-0.34133333 10.12622222 2.73066667 3.64088889 2.73066667 5.57511111 7.168 5.34755556 11.71911111-0.11377778 1.36533333-0.11377778 2.84444445 0 4.20977777v468.19555556c0 62.69155555 50.63111111 113.77777778 112.86755555 113.77777778h34.01955556l-93.41155556 172.82844444c-8.98844445 16.61155555-2.84444445 37.31911111 13.76711112 46.30755556 5.12 2.84444445 10.69511111 4.096 16.15644444 4.096 12.17422222 0 23.89333333-6.48533333 30.03733333-17.86311111l110.93333333-205.59644445h155.1928889v207.30311112c0 18.88711111 15.24622222 34.13333333 34.13333333 34.13333333s34.13333333-15.24622222 34.13333333-34.13333333V699.73333333h154.73777778l111.04711111 205.25511112c6.144 11.37777778 17.97688889 17.86311111 30.03733333 17.8631111 5.46133333 0 11.03644445-1.36533333 16.15644445-4.096 16.61155555-8.98844445 22.75555555-29.696 13.76711111-46.30755555l-93.41155556-172.82844445h34.36088889c62.23644445 0 112.86755555-51.08622222 112.86755556-113.77777777V117.76c0.11377778-1.36533333 0.11377778-2.73066667 0-4.096-0.22755555-4.55111111 1.70666667-8.98844445 5.34755555-11.71911111 6.03022222-4.55111111 14.67733333-3.41333333 19.22844445 2.61688889 4.55111111 6.03022222 3.41333333 14.67733333-2.61688889 19.22844444-15.01866667 11.49155555-17.86311111 32.88177778-6.37155556 47.90044445 6.71288889 8.76088889 16.83911111 13.42577778 27.19288889 13.42577778 7.168 0 14.44977778-2.27555555 20.70755556-7.05422223 35.84-27.53422222 42.78044445-79.07555555 15.36-115.02933333z m-191.82933333 568.54755556h-601.88444445c-24.576 0-44.60088889-20.36622222-44.60088889-45.51111112v-372.16711111h691.08622222v372.16711111c0 25.14488889-20.02488889 45.51111111-44.60088888 45.51111112z" fill="#cdcdcd" p-id="1806"></path></svg>