<?xml version="1.0" standalone="no"?><!DOCTYPE svg PUBLIC "-//W3C//DTD SVG 1.1//EN" "http://www.w3.org/Graphics/SVG/1.1/DTD/svg11.dtd"><svg t="1595511705870" class="icon" viewBox="0 0 1024 1024" version="1.1" xmlns="http://www.w3.org/2000/svg" p-id="1390" xmlns:xlink="http://www.w3.org/1999/xlink" width="200" height="200"><defs><style type="text/css"></style></defs><path d="M442.112 605.184c-9.728 0-19.456-3.072-27.392-9.216l-190.976-143.872c-15.104-11.264-21.504-30.464-16.384-48.896l101.888-358.656c5.632-19.968 24.064-33.536 44.8-33.024L545.28 14.848c15.36 0.256 29.696 7.424 39.168 19.456 9.472 12.032 13.056 27.648 9.728 42.752l-107.52 492.288c-3.328 15.36-14.08 27.648-28.672 33.024-5.12 1.792-10.496 2.816-15.872 2.816M254.208 414.72l186.368 140.544 106.752-488.448c0.256-1.024 0-1.792-0.512-2.56-0.512-0.768-1.28-1.024-2.304-1.024l-189.44-3.328L254.208 414.72zM592.64 583.68c-7.168 0-14.08-2.048-20.48-6.144-13.056-8.448-19.456-24.064-16.128-39.168l91.904-419.072c3.584-16.384 17.408-28.16 34.304-29.184 16.896-1.024 32 8.96 37.376 25.088L816.64 395.52c5.376 15.616 0 32.512-13.312 42.24l-189.184 138.752c-6.144 4.864-13.824 7.168-21.504 7.168m94.208-416.512L609.28 520.704l159.488-116.992-81.92-236.544z m8.192-37.376z" fill="#cdcdcd" p-id="1391"></path><path d="M491.264 632.064l-44.032 88.832c-2.304 4.608-6.912 7.936-12.032 8.448l-111.872 12.288c-12.288 1.28-18.176 16.128-9.728 25.344l80.896 91.648c3.072 3.328 4.352 7.68 3.84 12.288l-12.8 97.792c-1.536 12.032 10.752 20.992 21.504 15.872l99.584-45.568c4.096-1.792 8.704-1.792 12.8 0l101.376 47.36c11.776 5.632 24.576-5.12 21.504-17.664l-26.368-102.656c-1.28-5.12 0.256-10.752 4.096-14.592l77.056-77.824c8.96-8.96 3.584-24.576-8.96-26.112l-105.728-13.312c-4.864-0.512-9.216-3.584-11.52-7.936l-52.48-95.232c-5.888-10.496-21.504-10.24-27.136 1.024" fill="#cdcdcd" p-id="1392"></path><path d="M627.712 1012.224c-5.632 0-11.52-1.28-16.896-3.84L513.024 962.56l-96 43.776c-13.056 5.888-28.16 4.352-39.68-4.096s-17.664-22.528-15.616-36.864l12.288-93.696-78.336-88.832c-9.728-11.008-12.544-26.624-7.168-40.192 5.376-13.824 17.664-23.296 32.512-25.088l107.008-11.776 41.984-84.48c6.656-13.312 19.712-21.504 34.56-21.76 14.592-0.256 28.16 7.424 35.328 20.48l50.432 91.392 101.12 12.8c15.104 1.792 27.392 12.032 32.256 26.368 4.864 14.336 1.28 29.952-9.216 40.704l-73.472 74.24 25.088 97.792c3.84 14.848-1.28 30.464-13.056 40.192-7.68 5.632-16.384 8.704-25.344 8.704m3.328-47.36c0.256 0 0.256 0 0 0m-121.6-3.84z m3.584-47.36c5.632 0 11.52 1.28 16.896 3.84l84.736 39.68-21.76-84.736c-3.328-13.312 0.512-27.648 10.24-37.632l64.768-65.28-88.064-11.008c-12.544-1.536-23.552-9.216-29.696-20.224l-44.544-80.64-36.608 73.984c-5.888 12.032-17.408 20.224-30.976 21.76l-95.232 10.496 69.888 79.104c7.424 8.448 11.008 19.712 9.472 31.232l-10.752 82.176 85.248-38.912c5.12-2.816 10.752-3.84 16.384-3.84m-136.448-39.168c0 0.256 0 0.256 0 0zM680.192 756.992zM425.728 710.144z" fill="#cdcdcd" p-id="1393"></path></svg>